# xmcd CD database file
#
# Track frame offsets:
#	150
#	13963
#	27005
#	40870
#	55434
#	71854
#	86329
#	99298
#	112405
#	126809
#	141600
#	155946
#	170457
#	183036
#	196765
#	209274
#	217179
#	231802
#	244649
#	258972
#
# Disc length: 3592 seconds
#
# Revision: 1
# Processed by: cddbd v1.5.2PL0 Copyright (c) Steve Scherf et al.
# Submitted via: CDex 1.51
#
DISCID=270e0614
DTITLE=Various Artist - SimplySwing CD2
DYEAR=2009
DGENRE=Jazz
TTITLE0=Frank Sinatra - I Get A Kick Out Of You
TTITLE1=Duke Ellington - Take The A Train
TTITLE2=Count Basie - One O'Clock Jump
TTITLE3=Ella Fitzgerald - Oh Lady Be Good
TTITLE4=Tommy Dorsey - I'm Getting Sentimental Over You
TTITLE5=Bing Crosby - Moonlight Becomes You
TTITLE6=Dinah Washington - All Or Nothing
TTITLE7=Billie Holiday - A Fine Romance
TTITLE8=Frank Sinatra - Sweet Lorraine
TTITLE9=Louis Armstrong - After You've Gone
TTITLE10=Helen Forrest - I Cried For You
TTITLE11=Nat King Cole - Unforgettable
TTITLE12=Lena Horne - At Long Last Love
TTITLE13=Anita O Day - Let Me Off Uptown
TTITLE14=Benny Goodman - Stardust
TTITLE15=Bing Crosby - It Had To Be You
TTITLE16=Doris Day - Sentimental Journey
TTITLE17=Dean Martin - All Of Me
TTITLE18=Peggy Lee - Stormy Weather
TTITLE19=Tony Bennett - Anything Goes
EXTD=YEAR: 2009
EXTT0=
EXTT1=
EXTT2=
EXTT3=
EXTT4=
EXTT5=
EXTT6=
EXTT7=
EXTT8=
EXTT9=
EXTT10=
EXTT11=
EXTT12=
EXTT13=
EXTT14=
EXTT15=
EXTT16=
EXTT17=
EXTT18=
EXTT19=
PLAYORDER=
